<?xml version="1.0" standalone="no"?><!DOCTYPE svg PUBLIC "-//W3C//DTD SVG 1.1//EN" "http://www.w3.org/Graphics/SVG/1.1/DTD/svg11.dtd"><svg t="1767688258122" class="icon" viewBox="0 0 1024 1024" version="1.1" xmlns="http://www.w3.org/2000/svg" p-id="5755" width="48" height="48" xmlns:xlink="http://www.w3.org/1999/xlink"><path d="M760.32 153.6c-58.88 0-107.52 48.64-107.52 107.52s48.64 107.52 107.52 107.52 107.52-48.64 107.52-107.52S819.2 153.6 760.32 153.6zM760.32 320c-30.72 0-56.32-25.6-56.32-56.32 0-30.72 25.6-56.32 56.32-56.32s56.32 25.6 56.32 56.32C816.64 294.4 791.04 320 760.32 320z" p-id="5756" fill="#ffffff"></path><path d="M908.8 0l-253.44 0-71.68 0-38.4 38.4L25.6 558.08c-30.72 30.72-30.72 84.48 0 115.2L350.72 998.4c15.36 15.36 35.84 23.04 56.32 23.04 20.48 0 40.96-7.68 56.32-23.04L1024 440.32 1024 115.2C1024 51.2 970.24 0 908.8 0zM972.8 419.84 430.08 962.56c-5.12 5.12-12.8 7.68-20.48 7.68-7.68 0-15.36-2.56-20.48-7.68L61.44 637.44c-12.8-12.8-12.8-30.72 0-43.52L604.16 51.2l304.64 0C942.08 51.2 972.8 81.92 972.8 115.2L972.8 419.84z" p-id="5757" fill="#ffffff"></path></svg>